<mxfile host="Electron" modified="2024-01-02T19:19:56.538Z" agent="Mozilla/5.0 (Windows NT 10.0; Win64; x64) AppleWebKit/537.36 (KHTML, like Gecko) draw.io/22.1.16 Chrome/120.0.6099.109 Electron/28.1.0 Safari/537.36" etag="UkLmK6T4wUuHncTSBJ1I" version="22.1.16" type="device">
  <diagram name="Page-1" id="zFxyTwlxiy_md64vyP5h">
    <mxGraphModel dx="1221" dy="717" grid="1" gridSize="10" guides="1" tooltips="1" connect="1" arrows="1" fold="1" page="1" pageScale="1" pageWidth="850" pageHeight="1100" math="0" shadow="0">
      <root>
        <mxCell id="0" />
        <mxCell id="1" parent="0" />
        <mxCell id="xo98SJiz1_lAAMWGWcyn-1" value="" style="whiteSpace=wrap;html=1;aspect=fixed;" vertex="1" parent="1">
          <mxGeometry x="20" y="100" width="180" height="180" as="geometry" />
        </mxCell>
        <mxCell id="xo98SJiz1_lAAMWGWcyn-2" value="Jupyter Notebooks" style="swimlane;fontStyle=0;childLayout=stackLayout;horizontal=1;startSize=30;horizontalStack=0;resizeParent=1;resizeParentMax=0;resizeLast=0;collapsible=1;marginBottom=0;whiteSpace=wrap;html=1;" vertex="1" parent="1">
          <mxGeometry x="40" y="150" width="140" height="120" as="geometry" />
        </mxCell>
        <mxCell id="xo98SJiz1_lAAMWGWcyn-3" value="Training" style="text;strokeColor=none;fillColor=none;align=left;verticalAlign=middle;spacingLeft=4;spacingRight=4;overflow=hidden;points=[[0,0.5],[1,0.5]];portConstraint=eastwest;rotatable=0;whiteSpace=wrap;html=1;" vertex="1" parent="xo98SJiz1_lAAMWGWcyn-2">
          <mxGeometry y="30" width="140" height="30" as="geometry" />
        </mxCell>
        <mxCell id="xo98SJiz1_lAAMWGWcyn-4" value="Testing" style="text;strokeColor=none;fillColor=none;align=left;verticalAlign=middle;spacingLeft=4;spacingRight=4;overflow=hidden;points=[[0,0.5],[1,0.5]];portConstraint=eastwest;rotatable=0;whiteSpace=wrap;html=1;" vertex="1" parent="xo98SJiz1_lAAMWGWcyn-2">
          <mxGeometry y="60" width="140" height="30" as="geometry" />
        </mxCell>
        <mxCell id="xo98SJiz1_lAAMWGWcyn-5" value="Benchmarking" style="text;strokeColor=none;fillColor=none;align=left;verticalAlign=middle;spacingLeft=4;spacingRight=4;overflow=hidden;points=[[0,0.5],[1,0.5]];portConstraint=eastwest;rotatable=0;whiteSpace=wrap;html=1;" vertex="1" parent="xo98SJiz1_lAAMWGWcyn-2">
          <mxGeometry y="90" width="140" height="30" as="geometry" />
        </mxCell>
        <mxCell id="xo98SJiz1_lAAMWGWcyn-6" value="Jupyter book" style="text;html=1;strokeColor=none;fillColor=none;align=center;verticalAlign=middle;whiteSpace=wrap;rounded=0;" vertex="1" parent="1">
          <mxGeometry x="65" y="110" width="90" height="30" as="geometry" />
        </mxCell>
        <mxCell id="xo98SJiz1_lAAMWGWcyn-7" value="" style="whiteSpace=wrap;html=1;aspect=fixed;" vertex="1" parent="1">
          <mxGeometry x="230" y="100" width="180" height="180" as="geometry" />
        </mxCell>
        <mxCell id="xo98SJiz1_lAAMWGWcyn-8" value="FastAPI" style="text;html=1;strokeColor=none;fillColor=none;align=center;verticalAlign=middle;whiteSpace=wrap;rounded=0;" vertex="1" parent="1">
          <mxGeometry x="275" y="110" width="90" height="30" as="geometry" />
        </mxCell>
        <mxCell id="xo98SJiz1_lAAMWGWcyn-9" value="" style="whiteSpace=wrap;html=1;aspect=fixed;" vertex="1" parent="1">
          <mxGeometry x="440" y="100" width="180" height="180" as="geometry" />
        </mxCell>
        <mxCell id="xo98SJiz1_lAAMWGWcyn-10" value="Backend Hosting" style="text;html=1;strokeColor=none;fillColor=none;align=center;verticalAlign=middle;whiteSpace=wrap;rounded=0;" vertex="1" parent="1">
          <mxGeometry x="477.5" y="110" width="105" height="30" as="geometry" />
        </mxCell>
        <mxCell id="xo98SJiz1_lAAMWGWcyn-11" value="models.py" style="swimlane;fontStyle=0;childLayout=stackLayout;horizontal=1;startSize=30;horizontalStack=0;resizeParent=1;resizeParentMax=0;resizeLast=0;collapsible=1;marginBottom=0;whiteSpace=wrap;html=1;" vertex="1" parent="1">
          <mxGeometry x="250" y="150" width="140" height="120" as="geometry" />
        </mxCell>
        <mxCell id="xo98SJiz1_lAAMWGWcyn-12" value="Dx multi-class classifier" style="text;strokeColor=none;fillColor=none;align=left;verticalAlign=middle;spacingLeft=4;spacingRight=4;overflow=hidden;points=[[0,0.5],[1,0.5]];portConstraint=eastwest;rotatable=0;whiteSpace=wrap;html=1;" vertex="1" parent="xo98SJiz1_lAAMWGWcyn-11">
          <mxGeometry y="30" width="140" height="30" as="geometry" />
        </mxCell>
        <mxCell id="xo98SJiz1_lAAMWGWcyn-13" value="Px binary classifier" style="text;strokeColor=none;fillColor=none;align=left;verticalAlign=middle;spacingLeft=4;spacingRight=4;overflow=hidden;points=[[0,0.5],[1,0.5]];portConstraint=eastwest;rotatable=0;whiteSpace=wrap;html=1;" vertex="1" parent="xo98SJiz1_lAAMWGWcyn-11">
          <mxGeometry y="60" width="140" height="30" as="geometry" />
        </mxCell>
        <mxCell id="xo98SJiz1_lAAMWGWcyn-14" value="Other models" style="text;strokeColor=none;fillColor=none;align=left;verticalAlign=middle;spacingLeft=4;spacingRight=4;overflow=hidden;points=[[0,0.5],[1,0.5]];portConstraint=eastwest;rotatable=0;whiteSpace=wrap;html=1;" vertex="1" parent="xo98SJiz1_lAAMWGWcyn-11">
          <mxGeometry y="90" width="140" height="30" as="geometry" />
        </mxCell>
        <mxCell id="xo98SJiz1_lAAMWGWcyn-15" value="AWS" style="swimlane;fontStyle=0;childLayout=stackLayout;horizontal=1;startSize=30;horizontalStack=0;resizeParent=1;resizeParentMax=0;resizeLast=0;collapsible=1;marginBottom=0;whiteSpace=wrap;html=1;" vertex="1" parent="1">
          <mxGeometry x="460" y="150" width="140" height="120" as="geometry" />
        </mxCell>
        <mxCell id="xo98SJiz1_lAAMWGWcyn-16" value="Lambda functions" style="text;strokeColor=none;fillColor=none;align=left;verticalAlign=middle;spacingLeft=4;spacingRight=4;overflow=hidden;points=[[0,0.5],[1,0.5]];portConstraint=eastwest;rotatable=0;whiteSpace=wrap;html=1;" vertex="1" parent="xo98SJiz1_lAAMWGWcyn-15">
          <mxGeometry y="30" width="140" height="30" as="geometry" />
        </mxCell>
        <mxCell id="xo98SJiz1_lAAMWGWcyn-17" value="API Gateway" style="text;strokeColor=none;fillColor=none;align=left;verticalAlign=middle;spacingLeft=4;spacingRight=4;overflow=hidden;points=[[0,0.5],[1,0.5]];portConstraint=eastwest;rotatable=0;whiteSpace=wrap;html=1;" vertex="1" parent="xo98SJiz1_lAAMWGWcyn-15">
          <mxGeometry y="60" width="140" height="30" as="geometry" />
        </mxCell>
        <mxCell id="xo98SJiz1_lAAMWGWcyn-18" value="S3 storage" style="text;strokeColor=none;fillColor=none;align=left;verticalAlign=middle;spacingLeft=4;spacingRight=4;overflow=hidden;points=[[0,0.5],[1,0.5]];portConstraint=eastwest;rotatable=0;whiteSpace=wrap;html=1;" vertex="1" parent="xo98SJiz1_lAAMWGWcyn-15">
          <mxGeometry y="90" width="140" height="30" as="geometry" />
        </mxCell>
        <mxCell id="xo98SJiz1_lAAMWGWcyn-19" value="" style="whiteSpace=wrap;html=1;aspect=fixed;" vertex="1" parent="1">
          <mxGeometry x="650" y="100" width="180" height="180" as="geometry" />
        </mxCell>
        <mxCell id="xo98SJiz1_lAAMWGWcyn-20" value="Frontend Hosting" style="text;html=1;strokeColor=none;fillColor=none;align=center;verticalAlign=middle;whiteSpace=wrap;rounded=0;" vertex="1" parent="1">
          <mxGeometry x="687.5" y="110" width="105" height="30" as="geometry" />
        </mxCell>
        <mxCell id="xo98SJiz1_lAAMWGWcyn-21" value="Vercel" style="swimlane;fontStyle=0;childLayout=stackLayout;horizontal=1;startSize=30;horizontalStack=0;resizeParent=1;resizeParentMax=0;resizeLast=0;collapsible=1;marginBottom=0;whiteSpace=wrap;html=1;" vertex="1" parent="1">
          <mxGeometry x="670" y="150" width="140" height="120" as="geometry" />
        </mxCell>
        <mxCell id="xo98SJiz1_lAAMWGWcyn-22" value="NextJS/React" style="text;strokeColor=none;fillColor=none;align=left;verticalAlign=middle;spacingLeft=4;spacingRight=4;overflow=hidden;points=[[0,0.5],[1,0.5]];portConstraint=eastwest;rotatable=0;whiteSpace=wrap;html=1;" vertex="1" parent="xo98SJiz1_lAAMWGWcyn-21">
          <mxGeometry y="30" width="140" height="30" as="geometry" />
        </mxCell>
        <mxCell id="xo98SJiz1_lAAMWGWcyn-23" value="Tailwind CSS" style="text;strokeColor=none;fillColor=none;align=left;verticalAlign=middle;spacingLeft=4;spacingRight=4;overflow=hidden;points=[[0,0.5],[1,0.5]];portConstraint=eastwest;rotatable=0;whiteSpace=wrap;html=1;" vertex="1" parent="xo98SJiz1_lAAMWGWcyn-21">
          <mxGeometry y="60" width="140" height="30" as="geometry" />
        </mxCell>
        <mxCell id="xo98SJiz1_lAAMWGWcyn-24" value="Typescript" style="text;strokeColor=none;fillColor=none;align=left;verticalAlign=middle;spacingLeft=4;spacingRight=4;overflow=hidden;points=[[0,0.5],[1,0.5]];portConstraint=eastwest;rotatable=0;whiteSpace=wrap;html=1;" vertex="1" parent="xo98SJiz1_lAAMWGWcyn-21">
          <mxGeometry y="90" width="140" height="30" as="geometry" />
        </mxCell>
        <mxCell id="xo98SJiz1_lAAMWGWcyn-25" value="" style="endArrow=classic;html=1;rounded=0;exitX=1;exitY=0.556;exitDx=0;exitDy=0;exitPerimeter=0;" edge="1" parent="1">
          <mxGeometry width="50" height="50" relative="1" as="geometry">
            <mxPoint x="410" y="189.74000000000007" as="sourcePoint" />
            <mxPoint x="440" y="189.66000000000003" as="targetPoint" />
          </mxGeometry>
        </mxCell>
        <mxCell id="xo98SJiz1_lAAMWGWcyn-26" value="" style="endArrow=classic;html=1;rounded=0;exitX=1;exitY=0.556;exitDx=0;exitDy=0;exitPerimeter=0;" edge="1" parent="1">
          <mxGeometry width="50" height="50" relative="1" as="geometry">
            <mxPoint x="200" y="189.74000000000007" as="sourcePoint" />
            <mxPoint x="230" y="189.66000000000003" as="targetPoint" />
          </mxGeometry>
        </mxCell>
        <mxCell id="xo98SJiz1_lAAMWGWcyn-27" value="" style="endArrow=classic;html=1;rounded=0;exitX=1;exitY=0.556;exitDx=0;exitDy=0;exitPerimeter=0;" edge="1" parent="1">
          <mxGeometry width="50" height="50" relative="1" as="geometry">
            <mxPoint x="620" y="189.74000000000007" as="sourcePoint" />
            <mxPoint x="650" y="189.66000000000003" as="targetPoint" />
          </mxGeometry>
        </mxCell>
        <mxCell id="xo98SJiz1_lAAMWGWcyn-28" value="" style="whiteSpace=wrap;html=1;aspect=fixed;" vertex="1" parent="1">
          <mxGeometry x="860" y="100" width="180" height="180" as="geometry" />
        </mxCell>
        <mxCell id="xo98SJiz1_lAAMWGWcyn-29" value="Requests" style="text;html=1;strokeColor=none;fillColor=none;align=center;verticalAlign=middle;whiteSpace=wrap;rounded=0;" vertex="1" parent="1">
          <mxGeometry x="897.5" y="110" width="105" height="30" as="geometry" />
        </mxCell>
        <mxCell id="xo98SJiz1_lAAMWGWcyn-30" value="Users/Clinical Trials" style="swimlane;fontStyle=0;childLayout=stackLayout;horizontal=1;startSize=30;horizontalStack=0;resizeParent=1;resizeParentMax=0;resizeLast=0;collapsible=1;marginBottom=0;whiteSpace=wrap;html=1;" vertex="1" parent="1">
          <mxGeometry x="880" y="150" width="140" height="120" as="geometry" />
        </mxCell>
        <mxCell id="xo98SJiz1_lAAMWGWcyn-31" value="Oncologists" style="text;strokeColor=none;fillColor=none;align=left;verticalAlign=middle;spacingLeft=4;spacingRight=4;overflow=hidden;points=[[0,0.5],[1,0.5]];portConstraint=eastwest;rotatable=0;whiteSpace=wrap;html=1;" vertex="1" parent="xo98SJiz1_lAAMWGWcyn-30">
          <mxGeometry y="30" width="140" height="30" as="geometry" />
        </mxCell>
        <mxCell id="xo98SJiz1_lAAMWGWcyn-32" value="Pathologists" style="text;strokeColor=none;fillColor=none;align=left;verticalAlign=middle;spacingLeft=4;spacingRight=4;overflow=hidden;points=[[0,0.5],[1,0.5]];portConstraint=eastwest;rotatable=0;whiteSpace=wrap;html=1;" vertex="1" parent="xo98SJiz1_lAAMWGWcyn-30">
          <mxGeometry y="60" width="140" height="30" as="geometry" />
        </mxCell>
        <mxCell id="xo98SJiz1_lAAMWGWcyn-33" value="Researchers" style="text;strokeColor=none;fillColor=none;align=left;verticalAlign=middle;spacingLeft=4;spacingRight=4;overflow=hidden;points=[[0,0.5],[1,0.5]];portConstraint=eastwest;rotatable=0;whiteSpace=wrap;html=1;" vertex="1" parent="xo98SJiz1_lAAMWGWcyn-30">
          <mxGeometry y="90" width="140" height="30" as="geometry" />
        </mxCell>
        <mxCell id="xo98SJiz1_lAAMWGWcyn-34" value="" style="endArrow=classic;html=1;rounded=0;exitX=1;exitY=0.556;exitDx=0;exitDy=0;exitPerimeter=0;" edge="1" parent="1">
          <mxGeometry width="50" height="50" relative="1" as="geometry">
            <mxPoint x="830" y="189.74000000000007" as="sourcePoint" />
            <mxPoint x="860" y="189.66000000000003" as="targetPoint" />
          </mxGeometry>
        </mxCell>
        <mxCell id="xo98SJiz1_lAAMWGWcyn-35" value="&lt;h1&gt;AML Atlas Study Architecture&lt;/h1&gt;" style="text;html=1;strokeColor=none;fillColor=none;spacing=5;spacingTop=-20;whiteSpace=wrap;overflow=hidden;rounded=0;" vertex="1" parent="1">
          <mxGeometry x="20" y="30" width="1020" height="50" as="geometry" />
        </mxCell>
        <mxCell id="xo98SJiz1_lAAMWGWcyn-70" value="&lt;h1&gt;Diagnostic Reclassification Strategy&lt;/h1&gt;" style="text;html=1;strokeColor=none;fillColor=none;spacing=5;spacingTop=-20;whiteSpace=wrap;overflow=hidden;rounded=0;" vertex="1" parent="1">
          <mxGeometry x="20" y="330" width="1020" height="50" as="geometry" />
        </mxCell>
        <mxCell id="xo98SJiz1_lAAMWGWcyn-71" value="Annotatetd Diagnosis" style="rounded=0;whiteSpace=wrap;html=1;" vertex="1" parent="1">
          <mxGeometry x="25" y="380" width="170" height="60" as="geometry" />
        </mxCell>
      </root>
    </mxGraphModel>
  </diagram>
</mxfile>
